<svg width="20" height="21" viewBox="0 0 20 21" fill="none" xmlns="http://www.w3.org/2000/svg">
<path d="M10 20.5C15.4695 20.5 20 15.9792 20 10.5C20 5.03049 15.4695 0.5 9.99032 0.5C4.52081 0.5 0 5.03049 0 10.5C0 15.9792 4.53049 20.5 10 20.5ZM10 12.0876C8.10261 12.0779 6.63117 10.4903 6.63117 8.39932C6.62149 6.42449 8.11229 4.7788 10 4.7788C11.878 4.7788 13.3591 6.42449 13.3591 8.39932C13.3591 10.4903 11.8877 12.107 10 12.0876ZM10 18.864C7.83156 18.864 5.52759 17.9637 4.06583 16.3858C5.16941 14.7207 7.38625 13.7623 10 13.7623C12.5847 13.7623 14.8112 14.7014 15.9245 16.3858C14.4627 17.9637 12.1684 18.864 10 18.864Z" fill="#808080"/>
</svg>
