<svg width="24" height="24" viewBox="0 0 24 24" fill="none" xmlns="http://www.w3.org/2000/svg">
<path d="M12 5.33333C11.779 5.33333 11.567 5.24554 11.4107 5.08926C11.2545 4.93298 11.1667 4.72101 11.1667 4.5V2.83333C11.1667 2.61232 11.2545 2.40036 11.4107 2.24408C11.567 2.0878 11.779 2 12 2C12.221 2 12.433 2.0878 12.5893 2.24408C12.7455 2.40036 12.8333 2.61232 12.8333 2.83333V4.5C12.8333 4.72101 12.7455 4.93298 12.5893 5.08926C12.433 5.24554 12.221 5.33333 12 5.33333ZM12.8333 21.1667V19.5C12.8333 19.279 12.7455 19.067 12.5893 18.9107C12.433 18.7545 12.221 18.6667 12 18.6667C11.779 18.6667 11.567 18.7545 11.4107 18.9107C11.2545 19.067 11.1667 19.279 11.1667 19.5V21.1667C11.1667 21.3877 11.2545 21.5996 11.4107 21.7559C11.567 21.9122 11.779 22 12 22C12.221 22 12.433 21.9122 12.5893 21.7559C12.7455 21.5996 12.8333 21.3877 12.8333 21.1667ZM5.33333 12C5.33333 11.779 5.24554 11.567 5.08926 11.4107C4.93298 11.2545 4.72101 11.1667 4.5 11.1667H2.83333C2.61232 11.1667 2.40036 11.2545 2.24408 11.4107C2.0878 11.567 2 11.779 2 12C2 12.221 2.0878 12.433 2.24408 12.5893C2.40036 12.7455 2.61232 12.8333 2.83333 12.8333H4.5C4.72101 12.8333 4.93298 12.7455 5.08926 12.5893C5.24554 12.433 5.33333 12.221 5.33333 12ZM22 12C22 11.779 21.9122 11.567 21.7559 11.4107C21.5996 11.2545 21.3877 11.1667 21.1667 11.1667H19.5C19.279 11.1667 19.067 11.2545 18.9107 11.4107C18.7545 11.567 18.6667 11.779 18.6667 12C18.6667 12.221 18.7545 12.433 18.9107 12.5893C19.067 12.7455 19.279 12.8333 19.5 12.8333H21.1667C21.3877 12.8333 21.5996 12.7455 21.7559 12.5893C21.9122 12.433 22 12.221 22 12ZM16.4825 5.92917L17.3158 4.48667C17.4185 4.29588 17.4428 4.0726 17.3837 3.86418C17.3245 3.65575 17.1865 3.47857 16.9989 3.37019C16.8113 3.26181 16.5888 3.23075 16.3787 3.28361C16.1686 3.33647 15.9873 3.46908 15.8733 3.65333L15.04 5.09583C14.9294 5.28713 14.8994 5.51451 14.9564 5.72798C15.0134 5.94144 15.1529 6.12352 15.3442 6.23417C15.4706 6.30809 15.6144 6.34692 15.7608 6.34667C15.9072 6.34658 16.0509 6.30795 16.1776 6.23465C16.3043 6.16136 16.4095 6.056 16.4825 5.92917V5.92917ZM8.12417 20.3458L8.9575 18.9033C9.06017 18.7125 9.0845 18.4893 9.02533 18.2808C8.96616 18.0724 8.82814 17.8952 8.64053 17.7869C8.45293 17.6785 8.23049 17.6474 8.02037 17.7003C7.81026 17.7531 7.62899 17.8857 7.515 18.07L6.68167 19.5125C6.57103 19.7037 6.54083 19.931 6.59771 20.1445C6.65458 20.3579 6.79389 20.54 6.985 20.6508C7.11143 20.7247 7.25525 20.7635 7.40167 20.7633C7.54792 20.7636 7.69168 20.7255 7.81851 20.6526C7.94533 20.5798 8.05075 20.4748 8.12417 20.3483V20.3458ZM6.2325 8.65583C6.34314 8.46464 6.37334 8.23733 6.31646 8.02388C6.25958 7.81042 6.12028 7.62829 5.92917 7.5175L4.48667 6.68417C4.29588 6.58149 4.0726 6.55716 3.86418 6.61634C3.65575 6.67551 3.47857 6.81353 3.37019 7.00113C3.26181 7.18874 3.23075 7.41118 3.28361 7.62129C3.33647 7.83141 3.46908 8.01268 3.65333 8.12667L5.09583 8.96C5.28713 9.07057 5.51451 9.10064 5.72798 9.0436C5.94144 8.98657 6.12352 8.84709 6.23417 8.65583H6.2325ZM20.6492 17.015C20.7041 16.9203 20.7398 16.8157 20.7543 16.7072C20.7687 16.5987 20.7617 16.4884 20.7335 16.3826C20.7054 16.2768 20.6566 16.1776 20.5901 16.0906C20.5236 16.0037 20.4406 15.9307 20.3458 15.8758L18.9033 15.0425C18.7125 14.9398 18.4893 14.9155 18.2808 14.9747C18.0724 15.0338 17.8952 15.1719 17.7869 15.3595C17.6785 15.5471 17.6474 15.7695 17.7003 15.9796C17.7531 16.1897 17.8857 16.371 18.07 16.485L19.5125 17.3183C19.6389 17.3923 19.7827 17.4311 19.9292 17.4308C20.0755 17.4311 20.2193 17.3927 20.3462 17.3198C20.473 17.2468 20.5784 17.1416 20.6517 17.015H20.6492ZM8.65583 6.2325C8.84709 6.12185 8.98657 5.93978 9.0436 5.72631C9.10064 5.51284 9.07057 5.28546 8.96 5.09417L8.12667 3.65167C8.01268 3.46742 7.83141 3.3348 7.62129 3.28194C7.41118 3.22909 7.18874 3.26014 7.00113 3.36852C6.81353 3.4769 6.67551 3.65408 6.61634 3.86251C6.55716 4.07093 6.58149 4.29421 6.68417 4.485L7.5175 5.9275C7.59064 6.05418 7.69583 6.15938 7.82251 6.23252C7.94919 6.30566 8.09289 6.34416 8.23917 6.34417C8.38552 6.34468 8.52935 6.30613 8.65583 6.2325V6.2325ZM17.015 20.6492C17.2061 20.5384 17.3454 20.3562 17.4023 20.1428C17.4592 19.9293 17.429 19.702 17.3183 19.5108L16.485 18.0683C16.371 17.8841 16.1897 17.7515 15.9796 17.6986C15.7695 17.6458 15.5471 17.6768 15.3595 17.7852C15.1719 17.8936 15.0338 18.0708 14.9747 18.2792C14.9155 18.4876 14.9398 18.7109 15.0425 18.9017L15.8758 20.3442C15.9307 20.4389 16.0037 20.5219 16.0906 20.5884C16.1776 20.655 16.2768 20.7037 16.3826 20.7319C16.4884 20.76 16.5987 20.7671 16.7072 20.7526C16.8157 20.7381 16.9203 20.7024 17.015 20.6475V20.6492ZM18.9058 8.9575L20.3483 8.12417C20.5326 8.01018 20.6652 7.82891 20.7181 7.61879C20.7709 7.40868 20.7399 7.18624 20.6315 6.99863C20.5231 6.81103 20.3459 6.67301 20.1375 6.61384C19.9291 6.55467 19.7058 6.57899 19.515 6.68167L18.0725 7.515C17.8882 7.62899 17.7556 7.81026 17.7028 8.02037C17.6499 8.23049 17.681 8.45293 17.7894 8.64053C17.8977 8.82814 18.0749 8.96616 18.2833 9.02533C18.4918 9.0845 18.715 9.06017 18.9058 8.9575ZM4.48917 17.3158L5.93167 16.4825C6.11592 16.3685 6.24853 16.1872 6.30139 15.9771C6.35425 15.767 6.32319 15.5446 6.21481 15.357C6.10643 15.1694 5.92925 15.0313 5.72082 14.9722C5.5124 14.913 5.28912 14.9373 5.09833 15.04L3.65583 15.8733C3.49698 15.9651 3.37282 16.1066 3.30263 16.2761C3.23243 16.4456 3.22012 16.6335 3.2676 16.8107C3.31508 16.9879 3.41969 17.1444 3.56522 17.2561C3.71075 17.3678 3.88906 17.4283 4.0725 17.4283C4.21785 17.4289 4.36076 17.391 4.48667 17.3183L4.48917 17.3158Z" fill="#64BC26"/>
</svg>
