<svg width="20" height="20" viewBox="0 0 20 20" fill="none" xmlns="http://www.w3.org/2000/svg">
<path d="M11.6667 5.83434C11.6667 6.16397 11.5689 6.48621 11.3858 6.76029C11.2027 7.03437 10.9424 7.24799 10.6378 7.37413C10.3333 7.50028 9.99818 7.53329 9.67488 7.46898C9.35157 7.40467 9.0546 7.24593 8.82152 7.01285C8.58843 6.77976 8.4297 6.48279 8.36539 6.15949C8.30108 5.83619 8.33408 5.50108 8.46023 5.19654C8.58638 4.89199 8.8 4.6317 9.07408 4.44856C9.34816 4.26543 9.67039 4.16768 10 4.16768C10.4421 4.16768 10.866 4.34327 11.1785 4.65583C11.4911 4.96839 11.6667 5.39231 11.6667 5.83434ZM14.1317 10.1543L11.5834 12.6802C11.3766 12.8886 11.1306 13.0541 10.8596 13.167C10.5885 13.2799 10.2978 13.3381 10.0042 13.3381C9.71057 13.3381 9.41986 13.2799 9.14883 13.167C8.87779 13.0541 8.63179 12.8886 8.42503 12.6802L5.87837 10.1677C4.78484 9.0403 4.17243 7.53195 4.17057 5.96136C4.1687 4.39077 4.77752 2.88098 5.86837 1.75102C6.4045 1.19709 7.04655 0.75663 7.75633 0.455822C8.46611 0.155013 9.22913 0 10 0C10.7709 0 11.5339 0.155013 12.2437 0.455822C12.9535 0.75663 13.5955 1.19709 14.1317 1.75102C15.2209 2.87854 15.8297 4.38498 15.8297 5.95267C15.8297 7.52037 15.2209 9.0268 14.1317 10.1543ZM13.3334 5.83434C13.3334 5.17507 13.1379 4.53061 12.7716 3.98244C12.4053 3.43428 11.8847 3.00704 11.2756 2.75475C10.6665 2.50246 9.99633 2.43645 9.34973 2.56506C8.70312 2.69368 8.10918 3.01115 7.64301 3.47732C7.17683 3.9435 6.85937 4.53744 6.73075 5.18404C6.60213 5.83064 6.66814 6.50086 6.92043 7.10995C7.17273 7.71903 7.59997 8.23963 8.14813 8.6059C8.69629 8.97217 9.34076 9.16766 10 9.16766C10.8841 9.16766 11.7319 8.81648 12.357 8.19136C12.9822 7.56624 13.3334 6.71839 13.3334 5.83434ZM17.2942 7.66767C16.99 9.04495 16.3078 10.3101 15.3242 11.321L12.7592 13.8652C12.3983 14.2269 11.9697 14.514 11.4979 14.71C11.026 14.9061 10.5201 15.0072 10.0092 15.0076C9.49851 15.0078 8.9928 14.9074 8.52094 14.7121C8.04909 14.5168 7.62034 14.2304 7.2592 13.8693L4.70671 11.3502C3.73599 10.3537 3.05471 9.11179 2.73588 7.75767C2.19462 7.95606 1.69973 8.2632 1.28171 8.66016C0.874257 9.04755 0.550362 9.5142 0.329949 10.0314C0.109537 10.5486 -0.00273094 11.1054 5.04431e-05 11.6677V15.0635C0.00180177 15.9646 0.294876 16.841 0.83554 17.5619C1.3762 18.2827 2.13547 18.8095 3.00004 19.0635L5.3917 19.8135C5.79342 19.9385 6.21181 20.0017 6.63253 20.001C7.01419 20.0005 7.39403 19.9483 7.7617 19.846L12.5784 18.421C13.0074 18.3034 13.4601 18.3034 13.8892 18.421L15.8783 19.0876C16.3686 19.207 16.8795 19.2134 17.3726 19.1066C17.8658 18.9997 18.3282 18.7823 18.725 18.4707C19.1219 18.1592 19.4429 17.7616 19.6637 17.3079C19.8846 16.8542 19.9996 16.3564 20 15.8518V11.561C19.9971 10.7142 19.7368 9.88825 19.2535 9.19287C18.7702 8.49749 18.0869 7.96555 17.2942 7.66767Z" fill="white"/>
</svg>
