<svg width="15" height="21" viewBox="0 0 15 21" fill="none" xmlns="http://www.w3.org/2000/svg">
<path d="M2.37946 13.4869C1.50607 12.6752 0.839876 11.6638 0.437267 10.5382C0.0346581 9.41256 -0.092519 8.20594 0.0664983 7.02042C0.223732 5.81832 0.668327 4.67251 1.36218 3.6812C2.05603 2.68988 2.97844 1.88262 4.05036 1.32861C5.12227 0.774597 6.31172 0.490357 7.51675 0.50025C8.72178 0.510143 9.90646 0.813874 10.9692 1.38541C12.032 1.95695 12.9412 2.77924 13.6189 3.78182C14.2966 4.7844 14.7225 5.93736 14.8603 7.14187C14.998 8.34639 14.8433 9.56654 14.4096 10.6978C13.9759 11.829 13.276 12.8375 12.37 13.6369C11.7866 14.1416 11.3336 14.7812 11.05 15.5008H8.28567V9.51503C8.76839 9.34332 9.1866 9.02575 9.48307 8.60576C9.77954 8.18576 9.9398 7.68387 9.94193 7.16873C9.94193 6.94775 9.85468 6.73582 9.69937 6.57956C9.54407 6.42331 9.33343 6.33552 9.1138 6.33552C8.89416 6.33552 8.68353 6.42331 8.52822 6.57956C8.37292 6.73582 8.28567 6.94775 8.28567 7.16873C8.28567 7.38971 8.19842 7.60164 8.04312 7.75789C7.88781 7.91415 7.67717 8.00193 7.45754 8.00193C7.23791 8.00193 7.02727 7.91415 6.87197 7.75789C6.71666 7.60164 6.62941 7.38971 6.62941 7.16873C6.62941 6.94775 6.54216 6.73582 6.38686 6.57956C6.23156 6.42331 6.02092 6.33552 5.80128 6.33552C5.58165 6.33552 5.37101 6.42331 5.21571 6.57956C5.06041 6.73582 4.97316 6.94775 4.97316 7.16873C4.97528 7.68387 5.13554 8.18576 5.43201 8.60576C5.72849 9.02575 6.14669 9.34332 6.62941 9.51503V15.5008H3.78314C3.46654 14.7347 2.98749 14.0474 2.37946 13.4869ZM4.14503 17.1672V17.4255C4.14591 18.2406 4.46814 19.0221 5.04102 19.5985C5.6139 20.1749 6.39064 20.4991 7.20082 20.5H7.71426C8.52444 20.4991 9.30118 20.1749 9.87406 19.5985C10.4469 19.0221 10.7692 18.2406 10.7701 17.4255V17.1672H4.14503Z" fill="#808080"/>
</svg>
